<?xml version="1.0" encoding="UTF-8"?>
<svg id="Layer_2" data-name="Layer 2" xmlns="http://www.w3.org/2000/svg" viewBox="0 0 549.69 398.83">
  <defs>
    <style>
      .cls-1 {
        fill: #666;
      }

      .cls-1, .cls-2, .cls-3, .cls-4, .cls-5 {
        stroke-width: 0px;
      }

      .cls-3 {
        fill: #fff;
      }

      .cls-4 {
        fill: #005ea9;
      }

      .cls-5 {
        fill: #ea3326;
      }
    </style>
  </defs>
  <g id="Capa_1" data-name="Capa 1">
    <g>
      <g>
        <path class="cls-1" d="m48.47,390.86c-1.97,0-3.68-.44-5.11-1.31-1.43-.87-2.54-2.09-3.31-3.65-.78-1.56-1.16-3.39-1.16-5.48,0-1.95.35-3.79,1.06-5.5.71-1.72,1.68-3.23,2.91-4.55,1.23-1.32,2.67-2.35,4.3-3.09,1.63-.74,3.37-1.11,5.2-1.11.94,0,1.9.13,2.87.41.98.27,2.01.76,3.09,1.46l-.81,4.94h-2.01v-4.34c-1.08-.47-2.23-.71-3.46-.71-1.41,0-2.72.33-3.93.99-1.21.66-2.27,1.56-3.17,2.7-.91,1.14-1.6,2.45-2.1,3.93-.49,1.48-.74,3.06-.74,4.73,0,1.98.35,3.62,1.04,4.92.69,1.31,1.62,2.28,2.77,2.93,1.15.65,2.4.97,3.74.97.54,0,1.07-.05,1.59-.14.52-.09,1.03-.22,1.55-.39l1.45-4.41h2.12l-.99,5.11c-.94.4-1.95.76-3.02,1.09-1.07.33-2.36.49-3.86.49Z"/>
        <path class="cls-1" d="m65.54,390.79c-1.08,0-2.07-.24-2.96-.71-.89-.47-1.6-1.17-2.13-2.1-.53-.93-.79-2.06-.79-3.4,0-1.6.24-3.09.72-4.46.48-1.37,1.15-2.59,1.99-3.63.85-1.05,1.83-1.86,2.94-2.45,1.12-.59,2.3-.88,3.55-.88,1.67,0,3.04.53,4.11,1.59,1.07,1.06,1.61,2.59,1.61,4.58,0,1.53-.24,2.98-.71,4.36-.47,1.38-1.12,2.6-1.96,3.67-.83,1.07-1.79,1.91-2.87,2.52-1.08.61-2.25.92-3.49.92Zm.39-1.41c.87,0,1.66-.27,2.36-.81.71-.54,1.31-1.27,1.82-2.19.5-.92.9-1.94,1.18-3.07.28-1.13.42-2.28.42-3.46,0-1.9-.3-3.26-.9-4.07-.6-.81-1.38-1.22-2.35-1.22-1.11,0-2.11.44-3.01,1.3-.91.87-1.62,2.03-2.13,3.47-.52,1.45-.78,3.05-.78,4.81,0,1.86.32,3.19.95,4,.63.81,1.45,1.22,2.43,1.22Z"/>
        <path class="cls-1" d="m80.36,390.33l-2.36.28-.35-.28,3-14.14-3.49-.21.14-1.02,6-1.8.46.35-.74,3.63c1.18-1.1,2.43-2.05,3.76-2.82,1.33-.78,2.53-1.16,3.62-1.16,1.5,0,2.26.81,2.26,2.43,0,.56-.06,1.13-.18,1.71-.12.58-.25,1.16-.39,1.74l-1.59,6.52c-.12.49-.22.91-.32,1.25-.09.34-.14.61-.14.79,0,.49.22.74.67.74s.98-.22,1.6-.67c.62-.45,1.25-1.07,1.89-1.87l.85.67c-.45.68-.99,1.36-1.64,2.03-.65.67-1.35,1.22-2.1,1.64-.75.42-1.54.63-2.36.63-.54,0-.97-.14-1.29-.42-.32-.28-.48-.65-.48-1.09,0-.4.05-.79.16-1.18.11-.39.24-.95.41-1.68l1.52-6.21c.14-.61.27-1.19.39-1.73.12-.54.18-.99.18-1.34,0-.61-.11-1.03-.32-1.27-.21-.23-.52-.35-.92-.35-.63,0-1.45.26-2.43.78-.99.52-2.13,1.31-3.42,2.36l-.95,4.27c-.26,1.22-.5,2.45-.72,3.69-.22,1.23-.45,2.47-.69,3.72Z"/>
        <path class="cls-1" d="m106.59,386.41l2.36-11.07h-3.6l.25-1.41,3.81-.35,1.66-4.73h1.8l-1.02,4.76h4.48l-.28,1.9-4.55-.14-2.15,10.12c-.21.94-.32,1.62-.32,2.05,0,.26.09.46.26.6.18.14.37.21.58.21.89,0,2.05-.85,3.46-2.54l.88.67c-.49.71-1.06,1.39-1.69,2.05-.63.66-1.32,1.2-2.05,1.62-.73.42-1.49.63-2.29.63-.52,0-.97-.15-1.36-.46s-.58-.75-.58-1.34c0-.26.02-.57.07-.93.05-.36.14-.91.28-1.64Z"/>
        <path class="cls-1" d="m122.47,390.79c-1.08,0-2.07-.24-2.96-.71-.89-.47-1.6-1.17-2.13-2.1-.53-.93-.79-2.06-.79-3.4,0-1.6.24-3.09.72-4.46.48-1.37,1.15-2.59,1.99-3.63.85-1.05,1.83-1.86,2.94-2.45s2.3-.88,3.55-.88c1.67,0,3.04.53,4.11,1.59,1.07,1.06,1.61,2.59,1.61,4.58,0,1.53-.24,2.98-.71,4.36-.47,1.38-1.12,2.6-1.96,3.67-.83,1.07-1.79,1.91-2.87,2.52-1.08.61-2.25.92-3.49.92Zm.39-1.41c.87,0,1.66-.27,2.36-.81.71-.54,1.31-1.27,1.82-2.19.5-.92.9-1.94,1.18-3.07.28-1.13.42-2.28.42-3.46,0-1.9-.3-3.26-.9-4.07-.6-.81-1.38-1.22-2.35-1.22-1.11,0-2.11.44-3.01,1.3-.91.87-1.62,2.03-2.13,3.47-.52,1.45-.78,3.05-.78,4.81,0,1.86.32,3.19.95,4,.63.81,1.45,1.22,2.43,1.22Z"/>
        <path class="cls-1" d="m146.06,385.57c-.19.94-.28,1.61-.28,2.01,0,.24.08.42.25.56.16.14.35.21.57.21.47,0,1.02-.23,1.64-.7s1.23-1.08,1.82-1.83l.85.67c-.45.68-.98,1.35-1.6,2.01-.62.66-1.3,1.2-2.03,1.64-.73.44-1.49.65-2.29.65-.54,0-1-.15-1.39-.46-.39-.31-.58-.76-.58-1.38-.02-.26-.02-.56.02-.9.04-.34.11-.82.23-1.43-1.06,1.22-2.17,2.22-3.33,3-1.16.78-2.23,1.16-3.19,1.16-.85,0-1.59-.34-2.22-1.02-.63-.68-.95-1.82-.95-3.42,0-1.18.22-2.38.65-3.62.44-1.23,1.02-2.42,1.75-3.56.73-1.14,1.55-2.16,2.47-3.07.92-.9,1.88-1.62,2.89-2.15,1.01-.53,1.99-.79,2.93-.79.63,0,1.21.18,1.73.53l1.34-6.42-3.56-.25.14-1.02,6.03-1.76.42.28-4.27,21.06Zm-9.81-.56c0,1.15.21,2,.63,2.54.42.54.95.81,1.59.81s1.36-.26,2.17-.79c.81-.53,1.8-1.46,2.98-2.8l1.69-8.43c-.35-.31-.71-.52-1.08-.65-.37-.13-.72-.19-1.08-.19-.75,0-1.49.19-2.22.58-.73.39-1.4.92-2.01,1.61-.8.87-1.45,1.95-1.94,3.24-.49,1.29-.74,2.66-.74,4.09Z"/>
        <path class="cls-1" d="m158.16,390.79c-1.08,0-2.07-.24-2.96-.71-.89-.47-1.6-1.17-2.13-2.1-.53-.93-.79-2.06-.79-3.4,0-1.6.24-3.09.72-4.46.48-1.37,1.15-2.59,1.99-3.63.85-1.05,1.83-1.86,2.94-2.45s2.3-.88,3.55-.88c1.67,0,3.04.53,4.11,1.59,1.07,1.06,1.61,2.59,1.61,4.58,0,1.53-.24,2.98-.71,4.36-.47,1.38-1.12,2.6-1.96,3.67-.83,1.07-1.79,1.91-2.87,2.52-1.08.61-2.25.92-3.49.92Zm.39-1.41c.87,0,1.66-.27,2.36-.81.71-.54,1.31-1.27,1.82-2.19.5-.92.9-1.94,1.18-3.07s.42-2.28.42-3.46c0-1.9-.3-3.26-.9-4.07-.6-.81-1.38-1.22-2.35-1.22-1.11,0-2.11.44-3.01,1.3-.91.87-1.62,2.03-2.13,3.47-.52,1.45-.78,3.05-.78,4.81,0,1.86.32,3.19.95,4,.63.81,1.45,1.22,2.43,1.22Z"/>
        <path class="cls-1" d="m179.18,385.78c0,1.46-.55,2.66-1.64,3.6-1.09.94-2.53,1.41-4.32,1.41-1.36,0-2.4-.32-3.12-.95-.72-.63-1.13-1.48-1.25-2.54.09-.31.26-.55.51-.72.25-.18.51-.26.79-.26.52,0,.9.14,1.15.41.25.27.43.65.55,1.15l.39,1.52c.07.02.15.04.23.04h.26c1.22,0,2.17-.27,2.86-.81.68-.54,1.02-1.27,1.02-2.19,0-.56-.13-1.1-.39-1.62-.26-.52-.89-1.14-1.9-1.87-.87-.68-1.6-1.38-2.2-2.1-.6-.72-.9-1.63-.9-2.73,0-.92.23-1.75.71-2.5.47-.75,1.12-1.35,1.96-1.78s1.82-.65,2.94-.65c1.03,0,1.93.23,2.68.69.75.46,1.26,1.26,1.52,2.42-.21.66-.66.99-1.34.99-.82,0-1.42-.55-1.8-1.66l-.32-1.02c-.07-.02-.15-.04-.23-.04h-.26c-1.22,0-2.09.28-2.59.85-.5.56-.76,1.25-.76,2.05,0,.73.18,1.33.55,1.82.37.48,1.05,1.1,2.06,1.85,1.06.8,1.8,1.52,2.22,2.17.42.65.63,1.49.63,2.52Z"/>
        <path class="cls-1" d="m185.63,396.75c.09-.52.31-.91.65-1.18.34-.27.76-.41,1.25-.41s.99.11,1.43.34c.44.22.91.52,1.43.9l.11.07c1.15-.73,2.21-1.59,3.17-2.57.33-.33.65-.67.95-1.02.31-.35.61-.72.92-1.09-.09-1.39-.21-2.63-.34-3.72-.13-1.09-.27-2.23-.42-3.4-.15-1.18-.33-2.54-.55-4.09-.16-1.5-.31-2.6-.44-3.3s-.26-1.15-.41-1.36-.32-.32-.53-.32c-.31,0-.62.15-.94.44-.32.29-.79.92-1.43,1.89l-.81-.57c.7-1.5,1.45-2.58,2.22-3.23.78-.65,1.53-.97,2.26-.97.45,0,.83.12,1.15.35.32.24.59.69.81,1.36.22.67.41,1.66.55,2.98.21,2.05.38,3.97.51,5.78.13,1.81.23,3.54.3,5.18.82-1.5,1.52-2.83,2.1-3.99.58-1.15,1.08-2.29,1.52-3.4.43-1.12.84-2.35,1.22-3.69.4-1.36.73-2.39,1-3.07.27-.68.53-1.14.79-1.38.26-.23.55-.35.88-.35.4,0,.72.11.95.33.23.22.35.51.35.87,0,.45-.06.86-.18,1.23-.12.38-.35.92-.71,1.62-.38.75-.77,1.53-1.18,2.35-.41.81-.96,1.82-1.64,3.02-.66,1.15-1.37,2.4-2.13,3.76-.76,1.35-1.63,2.76-2.59,4.21-.45.68-.93,1.39-1.45,2.13-.52.74-1.14,1.51-1.87,2.31-1.15,1.25-2.25,2.23-3.3,2.94s-2.09,1.08-3.12,1.08c-.78,0-1.38-.19-1.8-.58-.42-.39-.66-.88-.7-1.46Z"/>
        <path class="cls-1" d="m211.52,398.83l.25-1.2,3.03-.49,4.44-20.95-3.49-.21.14-1.02,6-1.8.46.35-.85,3.95c1.1-1.34,2.29-2.39,3.56-3.16,1.27-.76,2.41-1.15,3.42-1.15.87,0,1.62.32,2.26.97.63.65.95,1.77.95,3.37,0,1.2-.21,2.42-.63,3.67-.42,1.25-1,2.44-1.73,3.58-.73,1.14-1.56,2.17-2.51,3.09-.94.92-1.93,1.64-2.96,2.17-1.03.53-2.06.79-3.07.79-.73,0-1.4-.18-2.01-.53-.31,1.5-.56,2.8-.78,3.88-.21,1.08-.39,2.07-.53,2.96l3.24.53-.28,1.2h-8.92Zm15.31-23.31c-.73,0-1.58.32-2.56.95-.98.63-2.02,1.54-3.12,2.72l-1.76,8.22c.47.35.93.61,1.39.76.46.15.89.23,1.29.23.89,0,1.73-.25,2.52-.74.79-.49,1.49-1.14,2.1-1.94.71-.94,1.26-2.01,1.68-3.19.41-1.19.62-2.39.62-3.62,0-2.26-.72-3.39-2.15-3.39Z"/>
        <path class="cls-1" d="m244.43,390.79c-.47,0-.89-.17-1.27-.49-.38-.33-.57-.85-.57-1.55s.05-1.3.14-1.87c-1.01,1.15-2.05,2.09-3.12,2.82-1.07.73-2.09,1.09-3.05,1.09-.85,0-1.62-.33-2.31-.99-.69-.66-1.04-1.72-1.04-3.17,0-1.22.23-2.47.69-3.74s1.07-2.49,1.83-3.65c.76-1.16,1.62-2.2,2.57-3.12.95-.92,1.93-1.64,2.93-2.17,1-.53,1.96-.79,2.87-.79.4,0,.76.08,1.09.25.33.16.63.4.92.71l1.62-1.31.63.32-2.82,12.45c-.21.87-.32,1.54-.32,2.01,0,.24.08.42.25.56.16.14.36.21.6.21.45,0,.98-.23,1.6-.7s1.24-1.08,1.85-1.83l.85.67c-.45.68-.99,1.35-1.62,2.01-.63.66-1.32,1.2-2.05,1.64-.73.44-1.49.65-2.29.65Zm-8.46-5.61c0,1.08.19,1.88.58,2.4.39.52.9.78,1.53.78s1.32-.25,2.12-.74c.8-.49,1.77-1.38,2.93-2.65l1.9-8.82c-.33-.19-.68-.35-1.04-.48-.37-.13-.74-.19-1.11-.19-.56,0-1.19.18-1.89.53-.69.35-1.36.86-1.99,1.52-.85.87-1.56,1.98-2.15,3.32-.59,1.34-.88,2.79-.88,4.34Z"/>
        <path class="cls-1" d="m252.71,390.33l3-14.14-3.49-.21.14-1.02,5.82-1.8.46.35-.78,4.73c.52-.89,1.06-1.72,1.64-2.49.58-.76,1.18-1.39,1.82-1.87.63-.48,1.26-.72,1.87-.72.49,0,.95.08,1.37.23s.75.43.99.83c-.02.59-.19,1.06-.51,1.43-.32.37-.77.55-1.36.55-.31,0-.64-.09-1.01-.26-.36-.18-.72-.39-1.08-.65-.85.71-1.62,1.54-2.33,2.5-.7.96-1.37,2.07-2.01,3.32l-.42,1.83c-.26,1.22-.5,2.45-.72,3.69-.22,1.23-.45,2.47-.69,3.72l-2.36.28-.35-.28Z"/>
        <path class="cls-1" d="m275.18,390.79c-.47,0-.89-.17-1.27-.49-.38-.33-.57-.85-.57-1.55s.05-1.3.14-1.87c-1.01,1.15-2.05,2.09-3.12,2.82-1.07.73-2.09,1.09-3.05,1.09-.85,0-1.62-.33-2.31-.99-.69-.66-1.04-1.72-1.04-3.17,0-1.22.23-2.47.69-3.74.46-1.27,1.07-2.49,1.83-3.65.76-1.16,1.62-2.2,2.57-3.12.95-.92,1.93-1.64,2.93-2.17,1-.53,1.96-.79,2.87-.79.4,0,.76.08,1.09.25.33.16.63.4.92.71l1.62-1.31.63.32-2.82,12.45c-.21.87-.32,1.54-.32,2.01,0,.24.08.42.25.56.16.14.36.21.6.21.45,0,.98-.23,1.6-.7s1.24-1.08,1.85-1.83l.85.67c-.45.68-.99,1.35-1.62,2.01-.63.66-1.32,1.2-2.05,1.64-.73.44-1.49.65-2.29.65Zm-8.46-5.61c0,1.08.19,1.88.58,2.4.39.52.9.78,1.53.78s1.32-.25,2.12-.74c.8-.49,1.77-1.38,2.93-2.65l1.9-8.82c-.33-.19-.68-.35-1.04-.48-.37-.13-.74-.19-1.11-.19-.56,0-1.19.18-1.89.53-.69.35-1.36.86-1.99,1.52-.85.87-1.56,1.98-2.15,3.32-.59,1.34-.88,2.79-.88,4.34Z"/>
        <path class="cls-1" d="m296.27,390.79c-1.55,0-2.83-.53-3.83-1.59-1-1.06-1.5-2.72-1.5-4.97,0-1.41.25-2.78.74-4.11.49-1.33,1.16-2.52,2.01-3.56.85-1.05,1.83-1.87,2.94-2.49,1.12-.61,2.29-.92,3.51-.92,1.15,0,2.03.28,2.63.85s.9,1.36.9,2.4c0,.75-.29,1.58-.88,2.49-.59.91-1.63,1.82-3.12,2.73-1.49.92-3.58,1.76-6.26,2.54.07,1.5.42,2.58,1.06,3.23s1.49.97,2.57.97,2.06-.28,2.86-.85c.8-.56,1.43-1.14,1.9-1.73l.81.63c-.73,1.2-1.65,2.23-2.75,3.09-1.11.86-2.31,1.29-3.6,1.29Zm3.1-16.12c-.54,0-1.13.21-1.78.63-.65.42-1.28,1.01-1.89,1.76-.61.75-1.12,1.62-1.53,2.59-.41.98-.66,2.02-.76,3.12,1.95-.57,3.51-1.19,4.67-1.89,1.16-.69,2-1.4,2.5-2.12.51-.72.76-1.39.76-2.03s-.18-1.17-.55-1.53-.84-.55-1.43-.55Z"/>
        <path class="cls-1" d="m307.63,390.79c-.54,0-1-.17-1.39-.51s-.58-.85-.58-1.53c0-.26.03-.56.09-.92.06-.35.13-.83.23-1.45l2.54-12.87c.21-1.03.41-2.07.6-3.12.19-1.05.36-2.1.53-3.16l-3.31-.21.14-1.02,6.07-1.76.39.28-4.23,20.99c-.21.94-.32,1.62-.32,2.05,0,.26.09.46.26.6.18.14.38.21.62.21.38,0,.85-.22,1.43-.67.58-.45,1.22-1.07,1.92-1.87l.81.67c-.49.68-1.03,1.36-1.6,2.03-.58.67-1.21,1.22-1.89,1.64-.68.42-1.45.63-2.29.63Z"/>
        <path class="cls-1" d="m327.1,390.79c-.8,0-1.49-.26-2.06-.78-.58-.52-.86-1.23-.86-2.15,0-.75.08-1.57.23-2.45.15-.88.35-1.91.58-3.09l3-15.06-3.49-.25.18-1.02,6.1-1.76.39.28-2.72,13.16c1.08-1.41,2.26-2.52,3.53-3.32,1.27-.8,2.42-1.2,3.46-1.2.87,0,1.62.32,2.26.97.63.65.95,1.77.95,3.37,0,1.2-.21,2.42-.63,3.67-.42,1.25-1.01,2.44-1.76,3.58-.75,1.14-1.62,2.17-2.61,3.09-.99.92-2.03,1.64-3.14,2.17-1.11.53-2.23.79-3.39.79Zm-.21-4.13c0,1.27.59,1.9,1.76,1.9,1.43,0,2.82-.63,4.16-1.9.96-.92,1.73-2.08,2.31-3.49.58-1.41.86-2.83.86-4.27,0-1.13-.19-1.98-.58-2.54-.39-.56-.91-.85-1.57-.85-.75,0-1.61.33-2.57.99-.96.66-2.01,1.6-3.14,2.82l-.53,2.43c-.19.89-.34,1.62-.44,2.17-.11.55-.18,1.04-.21,1.45-.04.41-.05.84-.05,1.29Z"/>
        <path class="cls-1" d="m341.73,388.99c0-.26.02-.57.07-.93.05-.36.15-.91.32-1.64l2.12-10.23-3.49-.21.14-1.02,6-1.8.46.35-2.51,12.06c-.09.45-.17.85-.23,1.2-.06.35-.09.62-.09.81,0,.24.08.42.25.56.16.14.34.21.53.21.85,0,1.98-.85,3.39-2.54l.88.67c-.52.71-1.08,1.39-1.68,2.05-.6.66-1.25,1.2-1.94,1.62s-1.46.63-2.31.63c-.47,0-.91-.15-1.31-.46s-.6-.75-.6-1.34Zm5.19-20.63c-.57,0-1.02-.18-1.38-.55-.35-.36-.53-.88-.53-1.53,0-.59.21-1.1.63-1.53.42-.44.9-.65,1.45-.65s1.02.18,1.37.55c.35.37.53.86.53,1.5,0,.56-.21,1.08-.63,1.53s-.91.69-1.45.69Z"/>
        <path class="cls-1" d="m356.55,390.79c-1.55,0-2.83-.53-3.83-1.59-1-1.06-1.5-2.72-1.5-4.97,0-1.41.25-2.78.74-4.11.49-1.33,1.16-2.52,2.01-3.56.85-1.05,1.83-1.87,2.94-2.49,1.12-.61,2.29-.92,3.51-.92,1.15,0,2.03.28,2.63.85.6.57.9,1.36.9,2.4,0,.75-.29,1.58-.88,2.49-.59.91-1.63,1.82-3.12,2.73-1.49.92-3.58,1.76-6.26,2.54.07,1.5.42,2.58,1.06,3.23s1.49.97,2.57.97,2.06-.28,2.86-.85c.8-.56,1.43-1.14,1.9-1.73l.81.63c-.73,1.2-1.65,2.23-2.75,3.09-1.11.86-2.31,1.29-3.6,1.29Zm3.1-16.12c-.54,0-1.13.21-1.78.63-.65.42-1.28,1.01-1.89,1.76-.61.75-1.12,1.62-1.53,2.59-.41.98-.66,2.02-.76,3.12,1.95-.57,3.51-1.19,4.67-1.89,1.16-.69,2-1.4,2.5-2.12.51-.72.76-1.39.76-2.03s-.18-1.17-.55-1.53c-.36-.36-.84-.55-1.43-.55Z"/>
        <path class="cls-1" d="m369.07,390.33l-2.36.28-.35-.28,3-14.14-3.49-.21.14-1.02,6-1.8.46.35-.74,3.63c1.18-1.1,2.43-2.05,3.76-2.82,1.33-.78,2.53-1.16,3.62-1.16,1.5,0,2.26.81,2.26,2.43,0,.56-.06,1.13-.18,1.71-.12.58-.25,1.16-.39,1.74l-1.59,6.52c-.12.49-.22.91-.32,1.25-.09.34-.14.61-.14.79,0,.49.22.74.67.74s.98-.22,1.6-.67c.62-.45,1.25-1.07,1.89-1.87l.85.67c-.45.68-.99,1.36-1.64,2.03-.65.67-1.35,1.22-2.1,1.64-.75.42-1.54.63-2.36.63-.54,0-.97-.14-1.29-.42-.32-.28-.48-.65-.48-1.09,0-.4.05-.79.16-1.18.11-.39.24-.95.41-1.68l1.52-6.21c.14-.61.27-1.19.39-1.73.12-.54.18-.99.18-1.34,0-.61-.11-1.03-.32-1.27-.21-.23-.52-.35-.92-.35-.63,0-1.45.26-2.43.78-.99.52-2.13,1.31-3.42,2.36l-.95,4.27c-.26,1.22-.5,2.45-.72,3.69-.22,1.23-.45,2.47-.69,3.72Z"/>
        <path class="cls-1" d="m405.96,385.57c-.19.94-.28,1.61-.28,2.01,0,.24.08.42.25.56.16.14.35.21.57.21.47,0,1.02-.23,1.64-.7s1.23-1.08,1.82-1.83l.85.67c-.45.68-.98,1.35-1.6,2.01-.62.66-1.3,1.2-2.03,1.64-.73.44-1.49.65-2.29.65-.54,0-1-.15-1.39-.46s-.58-.76-.58-1.38c-.02-.26-.02-.56.02-.9.04-.34.11-.82.23-1.43-1.06,1.22-2.17,2.22-3.33,3-1.16.78-2.23,1.16-3.19,1.16-.85,0-1.59-.34-2.22-1.02-.63-.68-.95-1.82-.95-3.42,0-1.18.22-2.38.65-3.62s1.02-2.42,1.75-3.56c.73-1.14,1.55-2.16,2.47-3.07.92-.9,1.88-1.62,2.89-2.15,1.01-.53,1.99-.79,2.93-.79.63,0,1.21.18,1.73.53l1.34-6.42-3.56-.25.14-1.02,6.03-1.76.42.28-4.27,21.06Zm-9.81-.56c0,1.15.21,2,.63,2.54.42.54.95.81,1.59.81s1.36-.26,2.17-.79c.81-.53,1.8-1.46,2.98-2.8l1.69-8.43c-.35-.31-.71-.52-1.08-.65-.37-.13-.72-.19-1.08-.19-.75,0-1.49.19-2.22.58-.73.39-1.4.92-2.01,1.61-.8.87-1.45,1.95-1.94,3.24-.49,1.29-.74,2.66-.74,4.09Z"/>
        <path class="cls-1" d="m417.49,390.79c-1.55,0-2.83-.53-3.83-1.59-1-1.06-1.5-2.72-1.5-4.97,0-1.41.25-2.78.74-4.11.49-1.33,1.16-2.52,2.01-3.56.85-1.05,1.83-1.87,2.94-2.49,1.12-.61,2.29-.92,3.51-.92,1.15,0,2.03.28,2.63.85.6.57.9,1.36.9,2.4,0,.75-.29,1.58-.88,2.49-.59.91-1.63,1.82-3.12,2.73-1.49.92-3.58,1.76-6.26,2.54.07,1.5.42,2.58,1.06,3.23s1.49.97,2.57.97,2.06-.28,2.86-.85c.8-.56,1.43-1.14,1.9-1.73l.81.63c-.73,1.2-1.65,2.23-2.75,3.09-1.11.86-2.31,1.29-3.6,1.29Zm3.1-16.12c-.54,0-1.13.21-1.78.63-.65.42-1.28,1.01-1.89,1.76-.61.75-1.12,1.62-1.53,2.59-.41.98-.66,2.02-.76,3.12,1.95-.57,3.51-1.19,4.67-1.89,1.16-.69,2-1.4,2.5-2.12.51-.72.76-1.39.76-2.03s-.18-1.17-.55-1.53-.84-.55-1.43-.55Z"/>
        <path class="cls-1" d="m436.39,386.41l2.36-11.07h-3.6l.25-1.41,3.81-.35,1.66-4.73h1.8l-1.02,4.76h4.48l-.28,1.9-4.55-.14-2.15,10.12c-.21.94-.32,1.62-.32,2.05,0,.26.09.46.26.6.18.14.37.21.58.21.89,0,2.05-.85,3.46-2.54l.88.67c-.49.71-1.06,1.39-1.69,2.05-.63.66-1.32,1.2-2.05,1.62-.73.42-1.49.63-2.29.63-.52,0-.97-.15-1.36-.46-.39-.31-.58-.75-.58-1.34,0-.26.02-.57.07-.93.05-.36.14-.91.28-1.64Z"/>
        <path class="cls-1" d="m452.27,390.79c-1.08,0-2.07-.24-2.96-.71-.89-.47-1.6-1.17-2.13-2.1-.53-.93-.79-2.06-.79-3.4,0-1.6.24-3.09.72-4.46.48-1.37,1.15-2.59,1.99-3.63.85-1.05,1.83-1.86,2.94-2.45,1.12-.59,2.3-.88,3.55-.88,1.67,0,3.04.53,4.11,1.59,1.07,1.06,1.61,2.59,1.61,4.58,0,1.53-.24,2.98-.71,4.36-.47,1.38-1.12,2.6-1.96,3.67-.83,1.07-1.79,1.91-2.87,2.52-1.08.61-2.25.92-3.49.92Zm.39-1.41c.87,0,1.66-.27,2.36-.81.71-.54,1.31-1.27,1.82-2.19.5-.92.9-1.94,1.18-3.07.28-1.13.42-2.28.42-3.46,0-1.9-.3-3.26-.9-4.07-.6-.81-1.38-1.22-2.35-1.22-1.11,0-2.11.44-3.01,1.3-.91.87-1.62,2.03-2.13,3.47-.52,1.45-.78,3.05-.78,4.81,0,1.86.32,3.19.95,4s1.45,1.22,2.43,1.22Z"/>
        <path class="cls-1" d="m475.86,385.57c-.19.94-.28,1.61-.28,2.01,0,.24.08.42.25.56.16.14.35.21.57.21.47,0,1.02-.23,1.64-.7.62-.47,1.23-1.08,1.82-1.83l.85.67c-.45.68-.98,1.35-1.6,2.01-.62.66-1.3,1.2-2.03,1.64-.73.44-1.49.65-2.29.65-.54,0-1-.15-1.39-.46s-.58-.76-.58-1.38c-.02-.26-.02-.56.02-.9.04-.34.11-.82.23-1.43-1.06,1.22-2.17,2.22-3.33,3-1.16.78-2.23,1.16-3.19,1.16-.85,0-1.59-.34-2.22-1.02-.63-.68-.95-1.82-.95-3.42,0-1.18.22-2.38.65-3.62.44-1.23,1.02-2.42,1.75-3.56.73-1.14,1.55-2.16,2.47-3.07.92-.9,1.88-1.62,2.89-2.15,1.01-.53,1.99-.79,2.93-.79.63,0,1.21.18,1.73.53l1.34-6.42-3.56-.25.14-1.02,6.03-1.76.42.28-4.27,21.06Zm-9.81-.56c0,1.15.21,2,.63,2.54.42.54.95.81,1.59.81s1.36-.26,2.17-.79c.81-.53,1.8-1.46,2.98-2.8l1.69-8.43c-.35-.31-.71-.52-1.08-.65-.37-.13-.72-.19-1.08-.19-.75,0-1.49.19-2.22.58-.73.39-1.4.92-2.01,1.61-.8.87-1.45,1.95-1.94,3.24-.49,1.29-.74,2.66-.74,4.09Z"/>
        <path class="cls-1" d="m487.96,390.79c-1.08,0-2.07-.24-2.96-.71-.89-.47-1.6-1.17-2.13-2.1-.53-.93-.79-2.06-.79-3.4,0-1.6.24-3.09.72-4.46.48-1.37,1.15-2.59,1.99-3.63.85-1.05,1.83-1.86,2.94-2.45,1.12-.59,2.3-.88,3.55-.88,1.67,0,3.04.53,4.11,1.59,1.07,1.06,1.61,2.59,1.61,4.58,0,1.53-.24,2.98-.71,4.36-.47,1.38-1.12,2.6-1.96,3.67s-1.79,1.91-2.87,2.52c-1.08.61-2.25.92-3.49.92Zm.39-1.41c.87,0,1.66-.27,2.36-.81.71-.54,1.31-1.27,1.82-2.19.5-.92.9-1.94,1.18-3.07.28-1.13.42-2.28.42-3.46,0-1.9-.3-3.26-.9-4.07-.6-.81-1.38-1.22-2.35-1.22-1.11,0-2.11.44-3.01,1.3-.91.87-1.62,2.03-2.13,3.47-.52,1.45-.78,3.05-.78,4.81,0,1.86.32,3.19.95,4s1.45,1.22,2.43,1.22Z"/>
        <path class="cls-1" d="m508.98,385.78c0,1.46-.55,2.66-1.64,3.6-1.09.94-2.53,1.41-4.32,1.41-1.36,0-2.4-.32-3.12-.95-.72-.63-1.13-1.48-1.25-2.54.09-.31.26-.55.51-.72.25-.18.51-.26.79-.26.52,0,.9.14,1.15.41.25.27.43.65.55,1.15l.39,1.52c.07.02.15.04.23.04h.26c1.22,0,2.17-.27,2.86-.81.68-.54,1.02-1.27,1.02-2.19,0-.56-.13-1.1-.39-1.62-.26-.52-.89-1.14-1.9-1.87-.87-.68-1.6-1.38-2.2-2.1-.6-.72-.9-1.63-.9-2.73,0-.92.23-1.75.71-2.5.47-.75,1.12-1.35,1.96-1.78.83-.44,1.82-.65,2.94-.65,1.03,0,1.93.23,2.68.69.75.46,1.26,1.26,1.52,2.42-.21.66-.66.99-1.34.99-.82,0-1.42-.55-1.8-1.66l-.32-1.02c-.07-.02-.15-.04-.23-.04h-.26c-1.22,0-2.09.28-2.59.85-.5.56-.76,1.25-.76,2.05,0,.73.18,1.33.55,1.82.37.48,1.05,1.1,2.06,1.85,1.06.8,1.8,1.52,2.22,2.17.42.65.63,1.49.63,2.52Z"/>
      </g>
      <g>
        <g>
          <path class="cls-2" d="m38.88,277.37v-1.17h7.71c2.43,0,4.25.53,5.46,1.59,1.21,1.06,1.82,2.43,1.82,4.11,0,1.07-.27,2.05-.8,2.95-.53.9-1.39,1.61-2.56,2.15-1.18.53-2.75.8-4.71.8h-1.49c0,1.03,0,2.04.01,3.04,0,.99.02,2.01.04,3.04l2.67.32v1.17h-8.14v-1.17l2.64-.32c.04-1.2.06-2.43.06-3.67v-8.84c0-1.23-.02-2.46-.06-3.68l-2.64-.32Zm7.19.14h-1.72c-.02,1.22-.03,2.47-.04,3.74,0,1.27-.01,2.55-.01,3.83v1.38h1.89c1.74,0,2.98-.43,3.73-1.28.75-.85,1.12-1.94,1.12-3.28s-.4-2.47-1.19-3.24c-.79-.76-2.05-1.15-3.77-1.15Z"/>
          <path class="cls-2" d="m57.19,277.37v-1.17h8.11v1.17l-2.64.32c-.02,1.22-.03,2.45-.04,3.68,0,1.23-.01,2.47-.01,3.71v1.98c0,1.01,0,2.11.01,3.28,0,1.18.02,2.37.04,3.6h6.51l.83-3.95h1.75l-.29,5.39h-14.27v-1.17l2.64-.32c.04-1.24.06-2.47.06-3.7v-8.83c0-1.24-.02-2.46-.06-3.67l-2.64-.32Z"/>
          <path class="cls-2" d="m74.88,295.37v-1.17l2.41-.37,6.1-17.77h1.81l6.1,17.88,2.15.26v1.17h-7.8v-1.17l2.81-.34-1.58-4.7h-6.65l-1.61,4.67,2.81.37v1.17h-6.56Zm8.71-16.11l-2.89,8.54h5.76l-2.87-8.54Z"/>
          <path class="cls-2" d="m94.31,281.3l.23-5.1h15.71l.23,5.1h-1.66l-.63-3.67h-4.39c-.02,1.22-.03,2.46-.04,3.7,0,1.24-.01,2.49-.01,3.76v1.4c0,1.22,0,2.45.01,3.68,0,1.23.02,2.47.04,3.71l2.92.32v1.17h-8.66v-1.17l2.92-.32c.04-1.22.06-2.45.06-3.68v-8.84c0-1.24-.02-2.48-.06-3.73h-4.39l-.63,3.67h-1.66Z"/>
          <path class="cls-2" d="m110.91,295.37v-1.17l2.41-.37,6.1-17.77h1.81l6.1,17.88,2.15.26v1.17h-7.8v-1.17l2.81-.34-1.58-4.7h-6.65l-1.61,4.67,2.81.37v1.17h-6.56Zm8.71-16.11l-2.89,8.54h5.76l-2.87-8.54Z"/>
          <path class="cls-2" d="m132.49,277.37v-1.17h14.27l.2,5.07h-1.63l-.63-3.64h-6.74c-.02,1.22-.03,2.45-.04,3.67,0,1.22-.01,2.43-.01,3.61h4.44l.4-2.72h1.32v7.05h-1.32l-.4-2.98h-4.44c0,1.41,0,2.74.01,3.98,0,1.24.02,2.46.04,3.64l2.67.32v1.17h-8.14v-1.17l2.64-.32c.04-1.2.06-2.43.06-3.67v-8.84c0-1.23-.02-2.46-.06-3.68l-2.64-.32Z"/>
          <path class="cls-2" d="m159.4,295.8c-1.11,0-2.19-.22-3.24-.65-1.05-.43-2-1.07-2.84-1.91-.84-.84-1.5-1.89-1.99-3.14-.49-1.25-.73-2.7-.73-4.34s.25-2.97.75-4.21c.5-1.24,1.16-2.29,1.99-3.15.83-.86,1.77-1.51,2.82-1.96,1.05-.45,2.13-.67,3.24-.67s2.18.22,3.22.65c1.04.43,1.98,1.07,2.81,1.91.83.84,1.5,1.88,1.99,3.12.5,1.24.75,2.69.75,4.33s-.24,2.97-.73,4.21c-.49,1.24-1.15,2.3-1.98,3.17-.83.87-1.77,1.53-2.82,1.98-1.05.45-2.13.67-3.24.67Zm0-1.43c.99,0,1.85-.24,2.57-.73s1.3-1.14,1.75-1.95c.45-.81.78-1.73.99-2.75.21-1.02.32-2.08.32-3.17s-.11-2.12-.32-3.14-.54-1.94-.99-2.77c-.45-.82-1.03-1.47-1.75-1.95s-1.57-.72-2.57-.72-1.85.24-2.56.72-1.3,1.13-1.76,1.95c-.46.82-.8,1.74-1.02,2.77-.22,1.02-.33,2.07-.33,3.14s.11,2.15.33,3.17c.22,1.02.56,1.94,1.02,2.75.46.81,1.05,1.46,1.76,1.95s1.57.73,2.56.73Z"/>
          <path class="cls-2" d="m171.81,277.37v-1.17h8.03c2.2,0,3.91.44,5.13,1.32,1.22.88,1.83,2.11,1.83,3.7,0,1.11-.4,2.12-1.2,3.04-.8.92-2.01,1.52-3.61,1.81.84.17,1.53.54,2.08,1.1.54.56.98,1.41,1.3,2.54l1.23,4.24,2.21.26v1.17c-.29.08-.61.14-.96.2-.35.06-.75.09-1.19.09-.9,0-1.57-.13-2.02-.4-.45-.27-.76-.74-.93-1.43l-1.15-4.59c-.17-.78-.42-1.37-.75-1.76-.33-.39-.74-.65-1.25-.79-.51-.13-1.15-.2-1.93-.2h-1.4c0,1.38,0,2.67.01,3.87,0,1.2.02,2.38.04,3.53l2.64.32v1.17h-8.11v-1.17l2.64-.32c.04-1.2.06-2.43.06-3.67v-8.84c0-1.23-.02-2.46-.06-3.68l-2.64-.32Zm7.94.14h-2.46c-.02,1.26-.03,2.52-.04,3.77,0,1.25-.01,2.56-.01,3.91h2.21c1.55,0,2.69-.37,3.42-1.12.74-.75,1.1-1.69,1.1-2.84,0-1.2-.33-2.13-1-2.77-.67-.64-1.74-.96-3.21-.96Z"/>
          <path class="cls-2" d="m192.04,295.37v-1.17l2.58-.37v-16.14l-2.58-.32v-1.17h5.3l6.42,15.76,6.08-15.76h5.65v1.17l-2.64.32c-.02,1.2-.03,2.43-.04,3.67,0,1.24-.01,2.48-.01,3.73v1.4c0,1.22,0,2.45.01,3.68,0,1.23.02,2.47.04,3.71l2.64.32v1.17h-7.8v-1.17l2.41-.32c.04-1.2.06-2.43.06-3.67v-10.83l-6.22,15.99h-1.43l-6.56-15.99.17,5.42v9.03l2.35.37v1.17h-6.42Z"/>
          <path class="cls-2" d="m218.64,295.37v-1.17l2.41-.37,6.1-17.77h1.81l6.1,17.88,2.15.26v1.17h-7.8v-1.17l2.81-.34-1.58-4.7h-6.65l-1.61,4.67,2.81.37v1.17h-6.56Zm8.71-16.11l-2.89,8.54h5.76l-2.87-8.54Z"/>
          <path class="cls-2" d="m248.91,277.37v-1.17h8.46c1.83,0,3.45.37,4.84,1.1,1.39.74,2.48,1.82,3.27,3.24.78,1.42,1.18,3.18,1.18,5.26s-.43,3.81-1.29,5.23-2.03,2.5-3.51,3.24c-1.48.74-3.16,1.1-5.03,1.1h-7.91v-1.17l2.64-.32c.04-1.22.06-2.47.06-3.74v-8.77c0-1.23-.02-2.46-.06-3.68l-2.64-.32Zm5.42,8.77c0,1.39,0,2.74.01,4.04,0,1.3.02,2.58.04,3.84h2.26c2.22,0,3.92-.72,5.1-2.16,1.18-1.44,1.78-3.46,1.78-6.06s-.58-4.75-1.75-6.16c-1.17-1.41-2.79-2.12-4.87-2.12h-2.52c-.02,1.22-.03,2.47-.04,3.74,0,1.27-.01,2.55-.01,3.83v1.06Z"/>
          <path class="cls-2" d="m270.12,277.37v-1.17h14.27l.2,5.07h-1.63l-.63-3.64h-6.74c-.02,1.22-.03,2.45-.04,3.67,0,1.22-.01,2.43-.01,3.61h4.21l.4-2.72h1.32v6.76h-1.32l-.37-2.69h-4.24c0,1.43,0,2.78.01,4.03,0,1.25.02,2.47.04,3.65h7.31l.63-3.67h1.63l-.2,5.1h-14.85v-1.17l2.64-.32c.04-1.2.06-2.43.06-3.67v-8.84c0-1.23-.02-2.46-.06-3.68l-2.64-.32Z"/>
          <path class="cls-2" d="m297.52,277.37v-1.17h8.11v1.17l-2.64.32c-.02,1.2-.03,2.43-.04,3.67-.01,1.24-.01,2.48-.01,3.73v1.4c0,1.22,0,2.45.01,3.68,0,1.23.02,2.47.04,3.71l2.64.32v1.17h-8.11v-1.17l2.64-.32c.04-1.2.06-2.43.06-3.67v-8.84c0-1.23-.02-2.46-.06-3.68l-2.64-.32Z"/>
          <path class="cls-2" d="m321.62,277.37v-1.17h6.91v1.17l-2.44.37v17.83h-1l-11.46-15.62v13.84l3.04.4v1.17h-6.94v-1.17l2.44-.34v-15.91l-.26-.34-2.04-.23v-1.17h4.41l10.35,14.22v-12.67l-3.01-.37Z"/>
          <path class="cls-2" d="m332.37,277.37v-1.17h14.27l.2,5.07h-1.63l-.63-3.64h-6.74c-.02,1.22-.03,2.45-.04,3.67-.01,1.22-.01,2.43-.01,3.61h4.44l.4-2.72h1.32v7.05h-1.32l-.4-2.98h-4.44c0,1.41,0,2.74.01,3.98,0,1.24.02,2.46.04,3.64l2.67.32v1.17h-8.14v-1.17l2.64-.32c.04-1.2.06-2.43.06-3.67v-8.84c0-1.23-.02-2.46-.06-3.68l-2.64-.32Z"/>
          <path class="cls-2" d="m359.28,295.8c-1.11,0-2.19-.22-3.24-.65-1.05-.43-2-1.07-2.84-1.91-.84-.84-1.5-1.89-1.99-3.14-.49-1.25-.73-2.7-.73-4.34s.25-2.97.75-4.21c.5-1.24,1.16-2.29,1.99-3.15.83-.86,1.77-1.51,2.82-1.96s2.13-.67,3.24-.67,2.18.22,3.22.65c1.04.43,1.98,1.07,2.81,1.91.83.84,1.5,1.88,1.99,3.12.5,1.24.74,2.69.74,4.33s-.24,2.97-.73,4.21c-.49,1.24-1.15,2.3-1.98,3.17-.83.87-1.77,1.53-2.82,1.98s-2.13.67-3.24.67Zm0-1.43c.99,0,1.85-.24,2.56-.73.72-.49,1.3-1.14,1.75-1.95.45-.81.78-1.73.99-2.75.21-1.02.31-2.08.31-3.17s-.11-2.12-.31-3.14c-.21-1.02-.54-1.94-.99-2.77-.45-.82-1.03-1.47-1.75-1.95-.72-.48-1.57-.72-2.56-.72s-1.85.24-2.56.72c-.72.48-1.3,1.13-1.76,1.95-.46.82-.8,1.74-1.02,2.77-.22,1.02-.33,2.07-.33,3.14s.11,2.15.33,3.17c.22,1.02.56,1.94,1.02,2.75.46.81,1.05,1.46,1.76,1.95.72.49,1.57.73,2.56.73Z"/>
          <path class="cls-2" d="m371.69,277.37v-1.17h8.03c2.2,0,3.91.44,5.13,1.32,1.22.88,1.83,2.11,1.83,3.7,0,1.11-.4,2.12-1.2,3.04-.8.92-2.01,1.52-3.61,1.81.84.17,1.53.54,2.08,1.1.54.56.98,1.41,1.3,2.54l1.23,4.24,2.21.26v1.17c-.29.08-.61.14-.96.2s-.75.09-1.19.09c-.9,0-1.57-.13-2.02-.4-.45-.27-.76-.74-.93-1.43l-1.15-4.59c-.17-.78-.42-1.37-.75-1.76-.33-.39-.74-.65-1.25-.79-.51-.13-1.15-.2-1.93-.2h-1.4c0,1.38,0,2.67.01,3.87,0,1.2.02,2.38.04,3.53l2.64.32v1.17h-8.11v-1.17l2.64-.32c.04-1.2.06-2.43.06-3.67v-8.84c0-1.23-.02-2.46-.06-3.68l-2.64-.32Zm7.94.14h-2.47c-.02,1.26-.03,2.52-.04,3.77-.01,1.25-.01,2.56-.01,3.91h2.21c1.55,0,2.69-.37,3.43-1.12.74-.75,1.1-1.69,1.1-2.84,0-1.2-.33-2.13-1-2.77-.67-.64-1.74-.96-3.21-.96Z"/>
          <path class="cls-2" d="m391.93,295.37v-1.17l2.58-.37v-16.14l-2.58-.32v-1.17h5.3l6.42,15.76,6.08-15.76h5.65v1.17l-2.64.32c-.02,1.2-.03,2.43-.04,3.67,0,1.24-.01,2.48-.01,3.73v1.4c0,1.22,0,2.45.01,3.68,0,1.23.02,2.47.04,3.71l2.64.32v1.17h-7.8v-1.17l2.41-.32c.04-1.2.06-2.43.06-3.67v-10.83l-6.22,15.99h-1.43l-6.56-15.99.17,5.42v9.03l2.35.37v1.17h-6.42Z"/>
          <path class="cls-2" d="m418.52,295.37v-1.17l2.41-.37,6.1-17.77h1.81l6.1,17.88,2.15.26v1.17h-7.8v-1.17l2.81-.34-1.58-4.7h-6.65l-1.61,4.67,2.81.37v1.17h-6.56Zm8.71-16.11l-2.89,8.54h5.76l-2.87-8.54Z"/>
          <path class="cls-2" d="m449.08,295.8c-1.93,0-3.63-.43-5.09-1.28s-2.6-2.03-3.41-3.54c-.81-1.51-1.22-3.25-1.22-5.22,0-1.45.24-2.78.73-4,.49-1.21,1.16-2.27,2.03-3.17.87-.9,1.89-1.59,3.07-2.09s2.46-.75,3.86-.75c.78,0,1.66.09,2.64.27.97.18,1.94.55,2.89,1.1l.11,4.16h-1.78l-.57-3.32c-.52-.29-1.02-.49-1.5-.6-.49-.11-.96-.17-1.42-.17-1.28,0-2.45.33-3.5.98-1.05.65-1.89,1.61-2.51,2.88-.62,1.27-.93,2.84-.93,4.71s.29,3.45.86,4.73c.57,1.28,1.37,2.25,2.39,2.89,1.02.65,2.18.98,3.48.98.55,0,1.12-.06,1.71-.19s1.15-.32,1.71-.59l.57-3.32h1.78l-.11,4.16c-.88.48-1.81.83-2.79,1.05-.98.22-1.98.33-3,.33Z"/>
          <path class="cls-2" d="m459.08,277.37v-1.17h8.11v1.17l-2.64.32c-.02,1.2-.03,2.43-.04,3.67-.01,1.24-.01,2.48-.01,3.73v1.4c0,1.22,0,2.45.01,3.68,0,1.23.02,2.47.04,3.71l2.64.32v1.17h-8.11v-1.17l2.64-.32c.04-1.2.06-2.43.06-3.67v-8.84c0-1.23-.02-2.46-.06-3.68l-2.64-.32Z"/>
          <path class="cls-2" d="m479.63,295.8c-1.11,0-2.19-.22-3.24-.65-1.05-.43-2-1.07-2.84-1.91-.84-.84-1.5-1.89-1.99-3.14-.49-1.25-.73-2.7-.73-4.34s.25-2.97.75-4.21c.5-1.24,1.16-2.29,1.99-3.15.83-.86,1.77-1.51,2.82-1.96s2.13-.67,3.24-.67,2.18.22,3.22.65c1.04.43,1.98,1.07,2.81,1.91.83.84,1.5,1.88,1.99,3.12.5,1.24.74,2.69.74,4.33s-.24,2.97-.73,4.21c-.49,1.24-1.15,2.3-1.98,3.17-.83.87-1.77,1.53-2.82,1.98s-2.13.67-3.24.67Zm0-1.43c.99,0,1.85-.24,2.56-.73.72-.49,1.3-1.14,1.75-1.95.45-.81.78-1.73.99-2.75.21-1.02.31-2.08.31-3.17s-.11-2.12-.31-3.14c-.21-1.02-.54-1.94-.99-2.77-.45-.82-1.03-1.47-1.75-1.95-.72-.48-1.57-.72-2.56-.72s-1.85.24-2.56.72c-.72.48-1.3,1.13-1.76,1.95-.46.82-.8,1.74-1.02,2.77-.22,1.02-.33,2.07-.33,3.14s.11,2.15.33,3.17c.22,1.02.56,1.94,1.02,2.75.46.81,1.05,1.46,1.76,1.95.72.49,1.57.73,2.56.73Zm-1.35-20.35c.88-.94,1.78-1.83,2.69-2.69.4-.4.74-.68,1-.85.27-.16.52-.24.77-.24.31,0,.56.09.77.27.21.18.31.42.31.7,0,.25-.1.5-.3.75-.2.25-.58.53-1.13.83-.59.33-1.19.65-1.79.97-.6.33-1.21.65-1.82.98l-.52-.72Z"/>
          <path class="cls-2" d="m503.9,277.37v-1.17h6.91v1.17l-2.44.37v17.83h-1l-11.46-15.62v13.84l3.04.4v1.17h-6.94v-1.17l2.44-.34v-15.91l-.26-.34-2.04-.23v-1.17h4.41l10.35,14.22v-12.67l-3.01-.37Z"/>
        </g>
        <g>
          <path class="cls-2" d="m0,314.56v-1.17h8.08v1.17l-2.72.32,3.98,8.68,4.1-8.66-2.58-.34v-1.17h6.56v1.17l-2.52.37-4.87,10.09c0,1.11,0,2.16.01,3.17s.02,1.96.04,2.88l2.92.32v1.17H4.36v-1.17l2.92-.32c.04-.9.06-1.83.06-2.81v-3.12l-5.07-10.32-2.26-.26Z"/>
          <path class="cls-2" d="m33.73,332.99c-1.07,0-2.1-.15-3.09-.44-.99-.3-1.82-.65-2.49-1.07l.17-4.01h1.78l.57,3.38c.44.25.89.43,1.36.54.47.11,1.01.17,1.62.17,1.36,0,2.44-.3,3.24-.9.8-.6,1.2-1.46,1.2-2.56,0-.92-.28-1.63-.85-2.14-.56-.51-1.46-1-2.68-1.48l-1.12-.46c-1.47-.57-2.66-1.31-3.57-2.22-.91-.91-1.36-2.09-1.36-3.54,0-1.11.28-2.05.85-2.84.56-.78,1.33-1.39,2.31-1.82.97-.43,2.07-.65,3.3-.65.96,0,1.82.13,2.61.4.78.27,1.48.63,2.09,1.09l-.17,3.76h-1.75l-.6-3.24c-.71-.38-1.49-.57-2.35-.57-1.09,0-2.01.27-2.75.82-.75.54-1.12,1.35-1.12,2.42,0,.88.28,1.61.85,2.18.56.57,1.36,1.06,2.39,1.46l1.15.43c1.87.73,3.21,1.54,4.01,2.45.8.91,1.2,2.04,1.2,3.4,0,1.13-.29,2.1-.87,2.91-.58.81-1.38,1.44-2.39,1.88-1.01.44-2.19.66-3.53.66Z"/>
          <path class="cls-2" d="m44.37,314.56v-1.17h14.27l.2,5.07h-1.63l-.63-3.64h-6.74c-.02,1.22-.03,2.45-.04,3.67-.01,1.22-.01,2.43-.01,3.61h4.21l.4-2.72h1.32v6.76h-1.32l-.37-2.69h-4.24c0,1.43,0,2.78.01,4.03,0,1.25.02,2.47.04,3.65h7.31l.63-3.67h1.63l-.2,5.1h-14.85v-1.17l2.64-.32c.04-1.2.06-2.43.06-3.67v-8.84c0-1.23-.02-2.46-.06-3.68l-2.64-.32Z"/>
          <path class="cls-2" d="m63.37,314.42v-1.17h8.03c2.2,0,3.91.44,5.13,1.32,1.22.88,1.83,2.11,1.83,3.7,0,1.11-.4,2.12-1.2,3.04-.8.92-2.01,1.52-3.61,1.81.84.17,1.53.54,2.08,1.1.54.56.98,1.41,1.3,2.54l1.23,4.24,2.21.26v1.17c-.29.08-.61.14-.96.2s-.75.09-1.19.09c-.9,0-1.57-.13-2.02-.4-.45-.27-.76-.74-.93-1.43l-1.15-4.59c-.17-.78-.42-1.37-.75-1.76-.33-.39-.74-.65-1.25-.79-.51-.13-1.15-.2-1.93-.2h-1.4c0,1.38,0,2.67.01,3.87,0,1.2.02,2.38.04,3.53l2.64.32v1.17h-8.11v-1.17l2.64-.32c.04-1.2.06-2.43.06-3.67v-8.84c0-1.23-.02-2.46-.06-3.68l-2.64-.32Zm7.94.14h-2.47c-.02,1.26-.03,2.52-.04,3.77-.01,1.25-.01,2.56-.01,3.91h2.21c1.55,0,2.69-.37,3.43-1.12.74-.75,1.1-1.69,1.1-2.84,0-1.2-.33-2.13-1-2.77-.67-.64-1.74-.96-3.21-.96Z"/>
          <path class="cls-2" d="m81.2,314.46v-1.17h7.82v1.29l-2.75.26,4.82,13.73,4.64-13.7-2.52-.29v-1.29h6.62v1.17l-2.49.34-6.05,17.86h-1.26l-6.68-17.94-2.15-.26Z"/>
          <path class="cls-2" d="m103.06,314.56v-1.17h8.11v1.17l-2.64.32c-.02,1.2-.03,2.43-.04,3.67-.01,1.24-.01,2.48-.01,3.73v1.4c0,1.22,0,2.45.01,3.68,0,1.23.02,2.47.04,3.71l2.64.32v1.17h-8.11v-1.17l2.64-.32c.04-1.2.06-2.43.06-3.67v-8.84c0-1.23-.02-2.46-.06-3.68l-2.64-.32Z"/>
          <path class="cls-2" d="m124.53,332.99c-1.93,0-3.63-.43-5.09-1.28s-2.6-2.03-3.41-3.54-1.22-3.25-1.22-5.22c0-1.45.24-2.78.73-4,.49-1.21,1.16-2.27,2.03-3.17.87-.9,1.89-1.59,3.07-2.09,1.17-.5,2.46-.75,3.86-.75.78,0,1.66.09,2.64.27.97.18,1.94.55,2.89,1.1l.11,4.16h-1.78l-.57-3.32c-.52-.29-1.02-.49-1.5-.6-.49-.11-.96-.17-1.42-.17-1.28,0-2.45.33-3.5.98-1.05.65-1.89,1.61-2.51,2.88-.62,1.27-.93,2.84-.93,4.71s.29,3.45.86,4.73c.57,1.28,1.37,2.25,2.39,2.89,1.02.65,2.18.98,3.48.98.55,0,1.12-.06,1.71-.19s1.15-.32,1.71-.59l.57-3.32h1.78l-.11,4.16c-.88.48-1.81.83-2.79,1.05-.98.22-1.98.33-3,.33Z"/>
          <path class="cls-2" d="m134.53,314.56v-1.17h8.11v1.17l-2.64.32c-.02,1.2-.03,2.43-.04,3.67-.01,1.24-.01,2.48-.01,3.73v1.4c0,1.22,0,2.45.01,3.68,0,1.23.02,2.47.04,3.71l2.64.32v1.17h-8.11v-1.17l2.64-.32c.04-1.2.06-2.43.06-3.67v-8.84c0-1.23-.02-2.46-.06-3.68l-2.64-.32Z"/>
          <path class="cls-2" d="m155.08,332.99c-1.11,0-2.19-.22-3.24-.65s-2-1.07-2.84-1.91c-.84-.84-1.5-1.89-1.99-3.14-.49-1.25-.73-2.7-.73-4.34s.25-2.97.75-4.21c.5-1.24,1.16-2.29,1.99-3.15.83-.86,1.77-1.51,2.82-1.96,1.05-.45,2.13-.67,3.24-.67s2.18.22,3.22.65c1.04.43,1.98,1.07,2.81,1.91.83.84,1.5,1.88,1.99,3.12.5,1.24.74,2.69.74,4.33s-.24,2.97-.73,4.21c-.49,1.24-1.15,2.3-1.98,3.17-.83.87-1.77,1.53-2.82,1.98s-2.13.67-3.24.67Zm0-1.43c.99,0,1.85-.24,2.56-.73.72-.49,1.3-1.14,1.75-1.95.45-.81.78-1.73.99-2.75.21-1.02.31-2.08.31-3.17s-.11-2.12-.31-3.14c-.21-1.02-.54-1.94-.99-2.77-.45-.82-1.03-1.47-1.75-1.95-.72-.48-1.57-.72-2.56-.72s-1.85.24-2.56.72c-.72.48-1.3,1.13-1.76,1.95-.46.82-.8,1.74-1.02,2.77-.22,1.02-.33,2.07-.33,3.14s.11,2.15.33,3.17c.22,1.02.56,1.94,1.02,2.75.46.81,1.05,1.46,1.76,1.95.72.49,1.57.73,2.56.73Z"/>
          <path class="cls-2" d="m173.66,332.99c-1.07,0-2.1-.15-3.09-.44-.99-.3-1.82-.65-2.49-1.07l.17-4.01h1.78l.57,3.38c.44.25.89.43,1.36.54.47.11,1.01.17,1.62.17,1.36,0,2.44-.3,3.24-.9.8-.6,1.2-1.46,1.2-2.56,0-.92-.28-1.63-.85-2.14-.56-.51-1.46-1-2.68-1.48l-1.12-.46c-1.47-.57-2.66-1.31-3.57-2.22-.91-.91-1.36-2.09-1.36-3.54,0-1.11.28-2.05.85-2.84.56-.78,1.33-1.39,2.31-1.82.97-.43,2.07-.65,3.3-.65.96,0,1.82.13,2.61.4.78.27,1.48.63,2.09,1.09l-.17,3.76h-1.75l-.6-3.24c-.71-.38-1.49-.57-2.35-.57-1.09,0-2.01.27-2.75.82-.75.54-1.12,1.35-1.12,2.42,0,.88.28,1.61.85,2.18.56.57,1.36,1.06,2.39,1.46l1.15.43c1.87.73,3.21,1.54,4.01,2.45.8.91,1.2,2.04,1.2,3.4,0,1.13-.29,2.1-.87,2.91-.58.81-1.38,1.44-2.39,1.88-1.01.44-2.19.66-3.53.66Z"/>
          <path class="cls-2" d="m195.33,314.56v-1.17h8.46c1.83,0,3.45.37,4.84,1.1,1.39.74,2.48,1.82,3.27,3.24.78,1.42,1.18,3.18,1.18,5.26s-.43,3.81-1.29,5.23-2.03,2.5-3.51,3.24c-1.48.74-3.16,1.1-5.03,1.1h-7.91v-1.17l2.64-.32c.04-1.22.06-2.47.06-3.74v-8.77c0-1.23-.02-2.46-.06-3.68l-2.64-.32Zm5.42,8.77c0,1.39,0,2.74.01,4.04,0,1.3.02,2.58.04,3.84h2.26c2.22,0,3.92-.72,5.1-2.16,1.18-1.44,1.78-3.46,1.78-6.06s-.58-4.75-1.75-6.16c-1.17-1.41-2.79-2.12-4.87-2.12h-2.52c-.02,1.22-.03,2.47-.04,3.74,0,1.27-.01,2.55-.01,3.83v1.06Z"/>
          <path class="cls-2" d="m216.54,314.61v-1.17h14.27l.2,5.07h-1.63l-.63-3.64h-6.74c-.02,1.22-.03,2.45-.04,3.67,0,1.22-.01,2.43-.01,3.61h4.21l.4-2.72h1.32v6.76h-1.32l-.37-2.69h-4.24c0,1.43,0,2.78.01,4.03,0,1.25.02,2.47.04,3.65h7.31l.63-3.67h1.63l-.2,5.1h-14.85v-1.17l2.64-.32c.04-1.2.06-2.43.06-3.67v-8.84c0-1.23-.02-2.46-.06-3.68l-2.64-.32Z"/>
          <path class="cls-2" d="m235.54,314.61v-1.17h8.11v1.17l-2.64.32c-.02,1.22-.03,2.45-.04,3.68,0,1.23-.01,2.47-.01,3.71v1.98c0,1.01,0,2.11.01,3.28,0,1.18.02,2.37.04,3.6h6.51l.83-3.95h1.75l-.29,5.39h-14.27v-1.17l2.64-.32c.04-1.24.06-2.47.06-3.7v-8.83c0-1.24-.02-2.46-.06-3.67l-2.64-.32Z"/>
          <path class="cls-2" d="m272.48,333.03c-1.91,0-3.59-.43-5.04-1.3-1.45-.87-2.58-2.06-3.4-3.57-.81-1.51-1.22-3.23-1.22-5.16s.41-3.64,1.23-5.14c.82-1.5,1.96-2.68,3.42-3.55,1.46-.87,3.17-1.3,5.12-1.3,1.18,0,2.24.11,3.17.33.93.22,1.79.56,2.59,1.02l.11,4.18h-1.78l-.57-3.27c-.99-.55-2.08-.83-3.27-.83-1.32,0-2.5.33-3.54,1-1.04.67-1.86,1.64-2.46,2.91s-.9,2.82-.9,4.66c0,2.73.63,4.84,1.89,6.33,1.26,1.49,2.99,2.24,5.19,2.24,1.09,0,2.11-.19,3.07-.57v-.92c0-.86,0-1.72-.01-2.59,0-.87-.02-1.73-.04-2.59l-2.98-.26v-1.15h7.54v1.15l-1.75.17c-.02.86-.03,1.73-.04,2.61,0,.88-.01,1.77-.01,2.67v1.26c-.99.52-2,.93-3.01,1.23-1.01.31-2.11.46-3.3.46Z"/>
          <path class="cls-2" d="m293.17,333.03c-1.11,0-2.19-.22-3.24-.65-1.05-.43-2-1.07-2.84-1.91-.84-.84-1.5-1.89-1.99-3.14-.49-1.25-.73-2.7-.73-4.34s.25-2.97.75-4.21c.5-1.24,1.16-2.29,1.99-3.15.83-.86,1.77-1.51,2.82-1.96,1.05-.45,2.13-.67,3.24-.67s2.18.22,3.22.65c1.04.43,1.98,1.07,2.81,1.91.83.84,1.5,1.88,1.99,3.12.5,1.24.75,2.69.75,4.33s-.24,2.97-.73,4.21c-.49,1.24-1.15,2.3-1.98,3.17-.83.87-1.77,1.53-2.82,1.98-1.05.45-2.13.67-3.24.67Zm0-1.43c.99,0,1.85-.24,2.57-.73s1.3-1.14,1.75-1.95c.45-.81.78-1.73.99-2.75.21-1.02.32-2.08.32-3.17s-.11-2.12-.32-3.14-.54-1.94-.99-2.77c-.45-.82-1.03-1.47-1.75-1.95s-1.57-.72-2.57-.72-1.85.24-2.56.72-1.3,1.13-1.76,1.95c-.46.82-.8,1.74-1.02,2.77-.22,1.02-.33,2.07-.33,3.14s.11,2.15.33,3.17c.22,1.02.56,1.94,1.02,2.75.46.81,1.05,1.46,1.76,1.95s1.57.73,2.56.73Z"/>
          <path class="cls-2" d="m305.59,314.61v-1.17h8.31c1.99,0,3.53.44,4.61,1.32,1.09.88,1.63,2,1.63,3.35,0,1.01-.34,1.94-1.03,2.78-.69.84-1.82,1.42-3.41,1.75,1.91.27,3.29.83,4.14,1.69.85.86,1.28,1.87,1.28,3.04,0,.86-.25,1.69-.76,2.49-.51.8-1.32,1.46-2.45,1.98-1.13.52-2.61.77-4.44.77h-7.88v-1.17l2.64-.32c.04-1.2.06-2.43.06-3.67v-8.84c0-1.23-.02-2.46-.06-3.68l-2.64-.32Zm7.45.14h-1.98c-.02,1.22-.03,2.46-.04,3.71,0,1.25-.01,2.44-.01,3.57h1.49c1.74,0,3-.3,3.78-.89.78-.59,1.17-1.54,1.17-2.84s-.37-2.22-1.1-2.75c-.74-.53-1.84-.8-3.31-.8Zm-.46,8.6h-1.58c0,1.51,0,2.9.01,4.17,0,1.27.02,2.52.04,3.74h1.75c1.83,0,3.2-.33,4.1-1s1.35-1.63,1.35-2.89c0-1.34-.45-2.34-1.35-3.01-.9-.67-2.34-1-4.33-1Z"/>
          <path class="cls-2" d="m324.65,314.61v-1.17h8.11v1.17l-2.64.32c-.02,1.2-.03,2.43-.04,3.67,0,1.24-.01,2.48-.01,3.73v1.4c0,1.22,0,2.45.01,3.68,0,1.23.02,2.47.04,3.71l2.64.32v1.17h-8.11v-1.17l2.64-.32c.04-1.2.06-2.43.06-3.67v-8.84c0-1.23-.02-2.46-.06-3.68l-2.64-.32Z"/>
          <path class="cls-2" d="m337,314.61v-1.17h14.27l.2,5.07h-1.63l-.63-3.64h-6.74c-.02,1.22-.03,2.45-.04,3.67,0,1.22-.01,2.43-.01,3.61h4.21l.4-2.72h1.32v6.76h-1.32l-.37-2.69h-4.24c0,1.43,0,2.78.01,4.03,0,1.25.02,2.47.04,3.65h7.31l.63-3.67h1.63l-.2,5.1h-14.85v-1.17l2.64-.32c.04-1.2.06-2.43.06-3.67v-8.84c0-1.23-.02-2.46-.06-3.68l-2.64-.32Z"/>
          <path class="cls-2" d="m356,314.61v-1.17h8.03c2.2,0,3.91.44,5.13,1.32,1.22.88,1.83,2.11,1.83,3.7,0,1.11-.4,2.12-1.2,3.04-.8.92-2.01,1.52-3.61,1.81.84.17,1.53.54,2.08,1.1.54.56.98,1.41,1.3,2.54l1.23,4.24,2.21.26v1.17c-.29.08-.61.14-.96.2-.35.06-.75.09-1.19.09-.9,0-1.57-.13-2.02-.4-.45-.27-.76-.74-.93-1.43l-1.15-4.59c-.17-.78-.42-1.37-.75-1.76-.33-.39-.74-.65-1.25-.79-.51-.13-1.15-.2-1.93-.2h-1.4c0,1.38,0,2.67.01,3.87,0,1.2.02,2.38.04,3.53l2.64.32v1.17h-8.11v-1.17l2.64-.32c.04-1.2.06-2.43.06-3.67v-8.84c0-1.23-.02-2.46-.06-3.68l-2.64-.32Zm7.94.14h-2.46c-.02,1.26-.03,2.52-.04,3.77,0,1.25-.01,2.56-.01,3.91h2.21c1.55,0,2.69-.37,3.42-1.12.74-.75,1.1-1.69,1.1-2.84,0-1.2-.33-2.13-1-2.77-.67-.64-1.74-.96-3.21-.96Z"/>
          <path class="cls-2" d="m388.13,314.61v-1.17h6.91v1.17l-2.44.37v17.83h-1l-11.46-15.62v13.84l3.04.4v1.17h-6.94v-1.17l2.44-.34v-15.91l-.26-.34-2.04-.23v-1.17h4.41l10.35,14.22v-12.67l-3.01-.37Z"/>
          <path class="cls-2" d="m407.48,333.03c-1.11,0-2.19-.22-3.24-.65-1.05-.43-2-1.07-2.84-1.91-.84-.84-1.5-1.89-1.99-3.14-.49-1.25-.73-2.7-.73-4.34s.25-2.97.75-4.21c.5-1.24,1.16-2.29,1.99-3.15.83-.86,1.77-1.51,2.82-1.96,1.05-.45,2.13-.67,3.24-.67s2.18.22,3.22.65c1.04.43,1.98,1.07,2.81,1.91.83.84,1.5,1.88,1.99,3.12.5,1.24.75,2.69.75,4.33s-.24,2.97-.73,4.21c-.49,1.24-1.15,2.3-1.98,3.17-.83.87-1.77,1.53-2.82,1.98-1.05.45-2.13.67-3.24.67Zm0-1.43c.99,0,1.85-.24,2.57-.73s1.3-1.14,1.75-1.95c.45-.81.78-1.73.99-2.75.21-1.02.32-2.08.32-3.17s-.11-2.12-.32-3.14-.54-1.94-.99-2.77c-.45-.82-1.03-1.47-1.75-1.95s-1.57-.72-2.57-.72-1.85.24-2.56.72-1.3,1.13-1.76,1.95c-.46.82-.8,1.74-1.02,2.77-.22,1.02-.33,2.07-.33,3.14s.11,2.15.33,3.17c.22,1.02.56,1.94,1.02,2.75.46.81,1.05,1.46,1.76,1.95s1.57.73,2.56.73Z"/>
          <path class="cls-2" d="m438.77,333.03c-1.93,0-3.63-.43-5.09-1.28-1.46-.85-2.6-2.03-3.41-3.54-.81-1.51-1.22-3.25-1.22-5.22,0-1.45.24-2.78.73-4,.49-1.21,1.17-2.27,2.03-3.17.87-.9,1.89-1.59,3.07-2.09,1.18-.5,2.46-.75,3.86-.75.78,0,1.66.09,2.64.27.97.18,1.94.55,2.89,1.1l.11,4.16h-1.78l-.57-3.32c-.52-.29-1.02-.49-1.5-.6-.49-.11-.96-.17-1.42-.17-1.28,0-2.45.33-3.5.98-1.05.65-1.89,1.61-2.51,2.88-.62,1.27-.93,2.84-.93,4.71s.29,3.45.86,4.73c.57,1.28,1.37,2.25,2.39,2.89,1.02.65,2.18.98,3.48.98.55,0,1.12-.06,1.71-.19.58-.12,1.15-.32,1.71-.59l.57-3.32h1.78l-.11,4.16c-.88.48-1.81.83-2.79,1.05-.98.22-1.98.33-3,.33Z"/>
          <path class="cls-2" d="m460.21,314.61v-1.17h6.88v1.17l-2.49.32v9.83c0,2.01-.3,3.62-.89,4.83-.59,1.21-1.4,2.09-2.44,2.64-1.03.54-2.21.82-3.53.82s-2.59-.27-3.64-.8c-1.05-.53-1.87-1.37-2.45-2.49-.58-1.13-.87-2.58-.87-4.36v-6.81c0-1.23-.02-2.46-.06-3.68l-2.38-.29v-1.17h8.11v1.17l-2.92.34c-.02,1.2-.03,2.42-.04,3.64-.01,1.22-.01,2.46-.01,3.7v2.26c0,1.62.19,2.91.59,3.86.39.95.94,1.61,1.65,2.01.71.39,1.55.59,2.52.59,1.62,0,2.85-.52,3.67-1.56.82-1.04,1.23-2.83,1.23-5.37v-9.09l-2.92-.37Z"/>
          <path class="cls-2" d="m470.47,314.61v-1.17h8.31c1.99,0,3.52.44,4.61,1.32,1.09.88,1.63,2,1.63,3.35,0,1.01-.34,1.94-1.03,2.78-.69.84-1.82,1.42-3.41,1.75,1.91.27,3.29.83,4.14,1.69.85.86,1.28,1.87,1.28,3.04,0,.86-.25,1.69-.76,2.49-.51.8-1.32,1.46-2.45,1.98-1.13.52-2.61.77-4.44.77h-7.88v-1.17l2.64-.32c.04-1.2.06-2.43.06-3.67v-8.84c0-1.23-.02-2.46-.06-3.68l-2.64-.32Zm7.45.14h-1.98c-.02,1.22-.03,2.46-.04,3.71-.01,1.25-.01,2.44-.01,3.57h1.49c1.74,0,3-.3,3.78-.89.78-.59,1.17-1.54,1.17-2.84s-.37-2.22-1.1-2.75c-.74-.53-1.84-.8-3.31-.8Zm-.46,8.6h-1.58c0,1.51,0,2.9.01,4.17,0,1.27.02,2.52.04,3.74h1.75c1.83,0,3.2-.33,4.1-1,.9-.67,1.35-1.63,1.35-2.89,0-1.34-.45-2.34-1.35-3.01-.9-.67-2.34-1-4.33-1Z"/>
          <path class="cls-2" d="m488.24,332.6v-1.17l2.41-.37,6.1-17.77h1.81l6.1,17.88,2.15.26v1.17h-7.8v-1.17l2.81-.34-1.58-4.7h-6.65l-1.61,4.67,2.81.37v1.17h-6.56Zm8.71-16.11l-2.89,8.54h5.76l-2.87-8.54Z"/>
          <path class="cls-2" d="m521.58,314.61v-1.17h6.91v1.17l-2.44.37v17.83h-1l-11.46-15.62v13.84l3.04.4v1.17h-6.94v-1.17l2.44-.34v-15.91l-.26-.34-2.04-.23v-1.17h4.41l10.35,14.22v-12.67l-3.01-.37Z"/>
          <path class="cls-2" d="m540.92,333.03c-1.11,0-2.19-.22-3.24-.65s-2-1.07-2.84-1.91c-.84-.84-1.5-1.89-1.99-3.14-.49-1.25-.73-2.7-.73-4.34s.25-2.97.75-4.21c.5-1.24,1.16-2.29,1.99-3.15.83-.86,1.77-1.51,2.82-1.96s2.13-.67,3.24-.67,2.18.22,3.22.65c1.04.43,1.98,1.07,2.81,1.91.83.84,1.5,1.88,1.99,3.12.5,1.24.74,2.69.74,4.33s-.24,2.97-.73,4.21c-.49,1.24-1.15,2.3-1.98,3.17-.83.87-1.77,1.53-2.82,1.98s-2.13.67-3.24.67Zm0-1.43c.99,0,1.85-.24,2.56-.73.72-.49,1.3-1.14,1.75-1.95.45-.81.78-1.73.99-2.75.21-1.02.31-2.08.31-3.17s-.11-2.12-.31-3.14c-.21-1.02-.54-1.94-.99-2.77-.45-.82-1.03-1.47-1.75-1.95-.72-.48-1.57-.72-2.56-.72s-1.85.24-2.56.72c-.72.48-1.3,1.13-1.76,1.95-.46.82-.8,1.74-1.02,2.77-.22,1.02-.33,2.07-.33,3.14s.11,2.15.33,3.17c.22,1.02.56,1.94,1.02,2.75.46.81,1.05,1.46,1.76,1.95.72.49,1.57.73,2.56.73Z"/>
        </g>
      </g>
      <g>
        <path class="cls-2" d="m80.07,225.28l-2.99-1.1c-5.2-1.85-8-4.2-8-8.1,0-4.62,4.11-7.21,9.35-7.21,2.1,0,3.86.41,5.62,1.33l1.44,7.57h5.42l.53-9.36c-3.24-2.21-7.53-3.77-12.54-3.77-10.07,0-17.31,5.38-17.31,13.47,0,7.66,5.4,11.74,13.18,14.61l2.87,1.14c5.61,1.84,8.42,3.5,8.42,7.69,0,4.6-4.13,7.54-10.7,7.54-2.99,0-5.1-.57-7.32-1.67l-1.33-7.9h-5.51l-.5,10.18c3.71,2.1,9.33,3.63,14.88,3.63,10.73,0,18.03-5.28,18.03-13.64,0-6.75-4-11-13.52-14.4Z"/>
        <path class="cls-2" d="m125.61,204.64c-11.48,0-23.13,8.74-23.13,24.34s11.57,24.34,23.13,24.34,22.98-8.82,22.98-24.34c0-16.34-11.58-24.34-22.98-24.34Zm0,44.46c-9.74,0-13.47-10.16-13.47-20.12s3.73-20.13,13.47-20.13,13.4,10.18,13.4,20.13-3.65,20.12-13.4,20.12Z"/>
        <path class="cls-2" d="m183.6,227.99c8.42-1.64,11.61-5.92,11.61-10.75,0-6.67-5.9-11.46-16.39-11.46h-22.45v3.47l6.56.76c.13,5.83.13,11.68.13,17.43v3.16c0,5.84,0,11.67-.13,17.37l-6.56.76v3.47h20.74c15.2,0,20.57-6.83,20.57-12.87,0-5.42-4.1-9.84-14.08-11.33Zm-7.33-18.28c6.84,0,10.62,1.71,10.62,8.19s-3.53,8.37-12.01,8.37h-3.44c0-5.51.02-11.09.14-16.57h4.69Zm-1.04,38.55h-3.65c-.14-5.89-.15-11.85-.15-18.03h3.59c9.59,0,13.85,2.9,13.85,9.14,0,5.73-4.42,8.89-13.65,8.89Z"/>
        <path class="cls-2" d="m238.63,248h-17.67c-.13-5.78-.14-11.63-.14-17.63h10.18l.95,6.28h3.82v-16.66h-3.82l-1.02,6.42h-10.1c0-5.37.01-10.93.14-16.43h16.14l1.57,8.66h5.01l-.56-12.86h-37.38v3.47l6.56.76c.13,5.81.13,11.63.13,17.36v3.24c0,5.84,0,11.66-.13,17.36l-6.56.76v3.47h38.99l.48-12.83h-5l-1.58,8.64Z"/>
        <path class="cls-2" d="m289.9,239.13c-1.67-6.08-4.52-8.87-9.46-9.76,8.62-1.47,12.57-6.47,12.57-11.44,0-7.62-6.76-12.15-18.38-12.15h-21.4v3.47l6.56.76c.13,5.81.13,11.63.13,17.36v3.24c0,5.84,0,11.66-.13,17.36l-6.56.76v3.47h21.71v-3.47l-6.52-.76c-.13-5.55-.13-11.21-.13-17.16h3c5.75,0,8.55.82,9.8,6.46l2.56,10.51c.9,4.03,3.38,5.3,8.43,5.3,2.42,0,4.07-.32,5.93-.88v-3.47l-5.48-.71-2.62-8.89Zm-21.61-12.17c0-6.04,0-11.57.14-17.26h5.68c7.09,0,10.25,2.74,10.25,8.37,0,5.14-3.26,8.88-11.23,8.88h-4.83Z"/>
        <path class="cls-2" d="m329.66,205.47h-5.44l-15.67,42.21-6.44,1.04v3.47h17.35v-3.47l-6.99-1.07,3.62-9.75h16.83l3.59,9.93-6.82.92v3.43h20.82v-3.43l-5.29-.7-15.55-42.59Zm-12.07,28.41l7.03-18.94,6.84,18.94h-13.88Z"/>
        <polygon class="cls-2" points="394.41 205.77 386.59 205.77 386.59 209.24 394.41 210.23 394.38 237.32 368.93 205.77 356.43 205.77 356.43 209.25 361.59 209.93 362.25 210.75 362.25 247.8 356.01 248.72 356.01 252.19 362.25 252.19 366.45 252.19 374.34 252.19 374.34 248.72 366.46 247.67 366.49 216.1 395.48 252.64 398.7 252.64 398.7 242.67 398.7 210.2 404.93 209.24 404.93 205.77 398.7 205.77 394.41 205.77"/>
        <path class="cls-2" d="m432.32,187.21c-1.53,0-3,.84-5.44,3.25-2.69,2.59-5.42,5.29-8.12,8.06l1.66,2.25c3.63-1.81,7.32-3.75,10.96-5.7,3.28-1.78,4.33-3.27,4.33-4.8,0-1.78-1.52-3.05-3.38-3.05Z"/>
        <path class="cls-2" d="m420.24,205.77h-6.45v3.47l6.56.76c.13,5.81.13,11.63.13,17.36v3.24c0,5.84,0,11.66-.13,17.36l-6.56.76v3.47h21.72v-3.47l-6.5-.76c-.13-5.81-.14-11.63-.14-17.37v-3.24c0-5.84,0-11.66.14-17.37l6.5-.76v-3.47h-15.28Z"/>
        <path class="cls-2" d="m483.71,248.06l-15.55-42.59h-5.44l-15.67,42.21-6.44,1.04v3.47h17.35v-3.47l-6.99-1.07,3.62-9.75h16.83l3.59,9.93-6.82.92v3.43h20.82v-3.43l-5.29-.7Zm-27.62-14.18l7.03-18.94,6.84,18.94h-13.88Z"/>
      </g>
      <g>
        <g>
          <path class="cls-4" d="m274.84,87.25l-15.14-16.1v93.84c8.87,4.29,15.14,6.56,15.14,6.56,0,0,6.25-2.26,15.1-6.54v-93.82l-15.1,16.06Z"/>
          <path class="cls-4" d="m203.5,11.39v100.63c0,1.65.27,3.3.9,4.82,5.29,12.6,16.09,23.27,27.68,31.76V41.78l-28.58-30.39Z"/>
          <path class="cls-4" d="m346.18,11.39l-28.54,29.36v107.83c11.57-8.49,22.36-19.15,27.64-31.73.64-1.52.9-3.17.9-4.82V11.39Z"/>
          <path class="cls-3" d="m232.09,41.78v106.83c9.56,7.01,19.64,12.52,27.62,16.38v-93.84l-27.62-29.37Z"/>
          <path class="cls-3" d="m289.94,71.19v93.82c8-3.87,18.11-9.4,27.7-16.43V41.74l-27.7,29.46Z"/>
        </g>
        <path class="cls-5" d="m203.51,0l71.34,75.85L346.19,0h-142.68Z"/>
        <polygon class="cls-3" points="281.02 52.52 271.78 39.81 256.83 44.66 266.07 31.95 256.83 19.23 271.78 24.09 281.02 11.37 281.02 27.09 295.96 31.95 281.02 36.8 281.02 52.52"/>
      </g>
    </g>
  </g>
</svg>