<svg xmlns="http://www.w3.org/2000/svg" viewBox="0 0 66.29 80.66"><defs><style>.cls-1{fill:#0053a1;}.cls-2{fill:#fff;}.cls-3{fill:#e42313;}</style></defs><title>cubagob icon</title><g id="Capa_2" data-name="Capa 2"><g id="Capa_1-2" data-name="Capa 1"><path class="cls-1" d="M0,4.45l.4.39,1,1L13.28,18.18V70l-1.11-.8C3.69,63.42.11,55.7,0,53.67V4.45Z"/><path class="cls-2" d="M13.28,18.2V70a91.07,91.07,0,0,0,12.83,7.64V31.55Z"/><path class="cls-2" d="M40.16,31.57V77.64A90.4,90.4,0,0,0,53,70V18.18Z"/><path class="cls-1" d="M33.14,38.88l-7-7.33V77.63a68.5,68.5,0,0,0,7,3,68.92,68.92,0,0,0,7-3V31.57Z"/><path class="cls-1" d="M66.29,4.45l-.41.39-1,1L53,18.18V70c.36-.26.71-.52,1.09-.78C62.6,63.42,66.17,55.7,66.29,53.67V4.45Z"/><polygon class="cls-3" points="65.36 0 33.58 33.09 33.14 33.54 32.69 33.07 0.92 0 65.36 0"/><polygon class="cls-2" points="40.71 13.67 40.71 13.63 40.71 13.41 35.08 11.58 35.09 5.64 35.08 5.63 34.87 5.57 34.87 5.57 34.86 5.56 34.86 5.56 31.36 10.36 25.77 8.54 25.74 8.57 25.6 8.76 29.06 13.53 25.58 18.3 25.61 18.34 25.73 18.52 31.36 16.7 34.84 21.5 35.07 21.43 35.08 15.49 40.71 13.67"/></g></g></svg>